<svg xmlns="http://www.w3.org/2000/svg" viewBox="0 0 2400 1850" width="2400" height="1850">
  <defs>
    <pattern id="gridPattern" width="20" height="20" patternUnits="userSpaceOnUse">
      <path d="M 20 0 L 0 0 0 20" fill="none" stroke="#F1F5F9" stroke-width="0.8"/>
    </pattern>
  </defs>

  <rect width="100%" height="100%" fill="#FFFFFF"/>
  <rect x="25" y="25" width="2350" height="1800" fill="none" stroke="#CBD5E1" stroke-width="2"/>
  <rect x="35" y="35" width="2330" height="1780" fill="url(#gridPattern)" stroke="#0F172A" stroke-width="1"/>

  <!-- Plinth Base Slab (37'x40') -->
  <rect x="320.0" y="230.8" width="1127.8" height="1219.2" rx="0" fill="#F8FAFC" stroke="#0F172A" stroke-width="2.0" />


  <!-- Continuous 360° Cantilever Walk-Around Slab Gallery -->
  <g id="continuous_360_slab_gallery">
    <!-- North Cantilever Promenade (4'-3" wide = 1.30m) -->
    <rect x="320.0" y="100.8" width="1127.8" height="130.0" rx="0" fill="#EFF6FF" stroke="#2563EB" stroke-width="1.5" />

    <line x1="320.0" y1="105.8" x2="1447.8" y2="105.8" stroke="#1D4ED8" stroke-width="2.0" />

    <text x="883.9" y="165.8" font-family="Inter, -apple-system, sans-serif" font-size="11" font-weight="700" fill="#1D4ED8" text-anchor="middle" >CONTINUOUS NORTH CANTILEVER VERANDAH / ENTRY PROMENADE (4'-3&quot; WIDE DECK)</text>


    <!-- East Cantilever Gallery & Utility Balcony (3'-6" to 4'-8" wide) -->
    <rect x="1447.8" y="230.8" width="107.0" height="1219.2" rx="0" fill="#EFF6FF" stroke="#2563EB" stroke-width="1.5" />

    <rect x="1447.8" y="970.0" width="142.0" height="480.0" rx="0" fill="#F1F5F9" stroke="#475569" stroke-width="1.5" />

    <line x1="1584.8" y1="1450.0" x2="1589.8" y2="970.0" stroke="#334155" stroke-width="2.0" />

    <text x="1517.8" y="1210.0" font-family="Inter, -apple-system, sans-serif" font-size="10" font-weight="600" fill="#334155" text-anchor="middle" transform="rotate(-90 1517.8 1210.0)" >
  <tspan x="1517.8" dy="-0.3em">OUT-OF-HOUSE UTILITY BALCONY</tspan>
  <tspan x="1517.8" dy="1.25em">(WASH, WM &amp; GAS CAGE)</tspan>
</text>


    <!-- South Shaded Balcony (3'-6" wide across full South facade) -->
    <rect x="320.0" y="1450.0" width="1127.8" height="107.0" rx="0" fill="#EFF6FF" stroke="#2563EB" stroke-width="1.5" stroke-dasharray="4,4" />

    <text x="883.9" y="1505.0" font-family="Inter, -apple-system, sans-serif" font-size="11" font-weight="600" fill="#1D4ED8" text-anchor="middle" >SOUTH SHADED SITOUT BALCONY (37'-0&quot; x 3'-6&quot; CANTILEVER DECK)</text>


    <!-- West Service Walkway (3'-0" wide connecting South Balcony to NW Core) -->
    <rect x="229.0" y="800.0" width="91.0" height="757.0" rx="0" fill="#EFF6FF" stroke="#2563EB" stroke-width="1.2" stroke-dasharray="4,4" />

    <text x="275.0" y="1200.0" font-family="Inter, -apple-system, sans-serif" font-size="9" font-weight="600" fill="#2563EB" text-anchor="middle" transform="rotate(-90 275.0 1200.0)" >WEST 360° WALKWAY</text>

  </g>

  <!-- Open Ishanya (NE) Sitout Terrace (x=8.535 to PLINTH_W, y=8.128 to PLINTH_D) -->
  <g id="ishanya_open_terrace">
    <rect x="1173.5" y="230.8" width="274.3" height="406.4" rx="0" fill="#EFF6FF" stroke="#0284C7" stroke-width="1.8" />

    <text x="1300.0" y="330.0" font-family="Inter, -apple-system, sans-serif" font-size="13" font-weight="800" fill="#0369A1" text-anchor="middle" >OPEN ISHANYA (NE) SITOUT</text>

    <text x="1300.0" y="380.0" font-family="Inter, -apple-system, sans-serif" font-size="11" font-weight="600" fill="#0284C7" text-anchor="middle" >12'-6&quot; x 8'-0&quot; [OPEN TO SKY]</text>

    <text x="1300.0" y="430.0" font-family="Inter, -apple-system, sans-serif" font-size="9" font-weight="normal" fill="#075985" text-anchor="middle" >(Morning Sunlight &amp; Cross-Ventilation Corridor)</text>

  </g>

  <!-- Exterior 9" Walls -->
  <g id="exterior_walls">
    <!-- South Exterior Wall -->
    <rect x="320.0" y="1427.0" width="120.0" height="23.0" rx="0" fill="#334155" stroke="#0F172A" stroke-width="1.5" />

    <line x1="440.0" y1="1427.0" x2="440.0" y2="1517.0" stroke="#059669" stroke-width="2.5" />
<path d="M 440.0 1517.0 A 90.0 90.0 0 0 1 530.0 1427.0" fill="none" stroke="#10B981" stroke-width="1.2" stroke-dasharray="3,3"/>

    <rect x="530.0" y="1427.0" width="270.0" height="23.0" rx="0" fill="#334155" stroke="#0F172A" stroke-width="1.5" />

    <line x1="800.0" y1="1427.0" x2="800.0" y2="1577.0" stroke="#059669" stroke-width="2.5" />
<path d="M 800.0 1577.0 A 150.0 150.0 0 0 1 950.0 1427.0" fill="none" stroke="#10B981" stroke-width="1.2" stroke-dasharray="3,3"/>

    <rect x="950.0" y="1427.0" width="497.8" height="23.0" rx="0" fill="#334155" stroke="#0F172A" stroke-width="1.5" />


    <!-- East Exterior Wall -->
    <rect x="1424.8" y="1250.0" width="23.0" height="200.0" rx="0" fill="#334155" stroke="#0F172A" stroke-width="1.5" />

    <rect x="1424.8" y="1110.0" width="23.0" height="140.0" rx="0" fill="#EFF6FF" stroke="#2563EB" stroke-width="1.5" />
<line x1="1436.3" y1="1250.0" x2="1436.3" y2="1110.0" stroke="#3B82F6" stroke-width="1.2" />

    <rect x="1424.8" y="1010.0" width="23.0" height="100.0" rx="0" fill="#334155" stroke="#0F172A" stroke-width="1.5" />

    <!-- UTILITY DOOR FROM DINING LOBBY (y=4.40 to 5.25) - NEVER FROM KITCHEN! -->
    <line x1="1424.8" y1="1010.0" x2="1509.8" y2="1010.0" stroke="#059669" stroke-width="2.5" />
<path d="M 1509.8 1010.0 A 85.0 85.0 0 0 0 1424.8 925.0" fill="none" stroke="#10B981" stroke-width="1.2" stroke-dasharray="3,3"/>

    <text x="1462.8" y="965.0" font-family="Inter, -apple-system, sans-serif" font-size="9" font-weight="700" fill="#059669" text-anchor="middle" >DOOR TO UTILITY (FROM DINING LOBBY)</text>

    <rect x="1424.8" y="870.0" width="23.0" height="55.0" rx="0" fill="#334155" stroke="#0F172A" stroke-width="1.5" />

    <rect x="1424.8" y="730.0" width="23.0" height="140.0" rx="0" fill="#EFF6FF" stroke="#2563EB" stroke-width="1.5" />
<line x1="1436.3" y1="870.0" x2="1436.3" y2="730.0" stroke="#3B82F6" stroke-width="1.2" />

    <rect x="1424.8" y="230.8" width="23.0" height="499.2" rx="0" fill="#334155" stroke="#0F172A" stroke-width="1.5" />


    <!-- North Exterior Wall -->
    <rect x="320.0" y="230.8" width="100.0" height="23.0" rx="0" fill="#334155" stroke="#0F172A" stroke-width="1.5" />

    <rect x="420.0" y="230.8" width="150.0" height="23.0" rx="0" fill="#EFF6FF" stroke="#2563EB" stroke-width="1.5" />
<line x1="420.0" y1="242.3" x2="570.0" y2="242.3" stroke="#3B82F6" stroke-width="1.2" />

    <rect x="570.0" y="230.8" width="10.0" height="23.0" rx="0" fill="#334155" stroke="#0F172A" stroke-width="1.5" />

    <line x1="580.0" y1="253.8" x2="580.0" y2="163.8" stroke="#059669" stroke-width="2.5" />
<path d="M 580.0 163.8 A 90.0 90.0 0 0 0 670.0 253.8" fill="none" stroke="#10B981" stroke-width="1.2" stroke-dasharray="3,3"/>

    <rect x="670.0" y="230.8" width="70.0" height="23.0" rx="0" fill="#334155" stroke="#0F172A" stroke-width="1.5" />

    <rect x="740.0" y="230.8" width="140.0" height="23.0" rx="0" fill="#EFF6FF" stroke="#2563EB" stroke-width="1.5" />
<line x1="740.0" y1="242.3" x2="880.0" y2="242.3" stroke="#3B82F6" stroke-width="1.2" />

    <rect x="880.0" y="230.8" width="20.0" height="23.0" rx="0" fill="#334155" stroke="#0F172A" stroke-width="1.5" />

    <line x1="900.0" y1="253.8" x2="900.0" y2="163.8" stroke="#059669" stroke-width="2.5" />
<path d="M 900.0 163.8 A 90.0 90.0 0 0 0 990.0 253.8" fill="none" stroke="#10B981" stroke-width="1.2" stroke-dasharray="3,3"/>

    <rect x="990.0" y="230.8" width="61.5" height="23.0" rx="0" fill="#334155" stroke="#0F172A" stroke-width="1.5" />


    <!-- West Exterior Wall -->
    <rect x="320.0" y="1043.6" width="23.0" height="383.4" rx="0" fill="#334155" stroke="#0F172A" stroke-width="1.5" />

    <rect x="320.0" y="1150.0" width="23.0" height="150.0" rx="0" fill="#EFF6FF" stroke="#2563EB" stroke-width="1.5" />
<line x1="331.5" y1="1300.0" x2="331.5" y2="1150.0" stroke="#3B82F6" stroke-width="1.2" />

    <rect x="320.0" y="637.2" width="23.0" height="406.4" rx="0" fill="#334155" stroke="#0F172A" stroke-width="1.5" />

    <rect x="320.0" y="730.0" width="23.0" height="200.0" rx="0" fill="#EFF6FF" stroke="#2563EB" stroke-width="1.5" />
<line x1="331.5" y1="930.0" x2="331.5" y2="730.0" stroke="#3B82F6" stroke-width="1.2" />

    <rect x="320.0" y="253.8" width="23.0" height="383.4" rx="0" fill="#334155" stroke="#0F172A" stroke-width="1.5" />

    <rect x="320.0" y="390.0" width="23.0" height="140.0" rx="0" fill="#EFF6FF" stroke="#2563EB" stroke-width="1.5" />
<line x1="331.5" y1="530.0" x2="331.5" y2="390.0" stroke="#3B82F6" stroke-width="1.2" />

  </g>

  <!-- Interior Partitions (Aligned with Column Grid Lines x=3.810, 7.315 and y=4.064, 8.128) -->
  <g id="interior_partitions">
    <!-- Master Bedroom East Wall (x=3.810) -->
    <rect x="695.0" y="1043.6" width="11.5" height="383.4" rx="0" fill="#64748B" stroke="#0F172A" stroke-width="1.5" />


    <!-- Master Bed North Wall (y=4.064) with private Attached Bath door & Lobby Entry -->
    <rect x="343.0" y="1038.1" width="57.0" height="11.5" rx="0" fill="#64748B" stroke="#0F172A" stroke-width="1.5" />

    <line x1="400.0" y1="1043.6" x2="400.0" y2="963.6" stroke="#059669" stroke-width="2.5" />
<path d="M 400.0 963.6 A 80.0 80.0 0 0 0 480.0 1043.6" fill="none" stroke="#10B981" stroke-width="1.2" stroke-dasharray="3,3"/>

    <rect x="480.0" y="1038.1" width="100.0" height="11.5" rx="0" fill="#64748B" stroke="#0F172A" stroke-width="1.5" />

    <!-- Door into Master Bed from Private Lobby (y=4.064, x=2.60 to 3.46) -->
    <line x1="580.0" y1="1043.6" x2="580.0" y2="1129.6" stroke="#059669" stroke-width="2.5" />
<path d="M 580.0 1129.6 A 86.0 86.0 0 0 1 666.0 1043.6" fill="none" stroke="#10B981" stroke-width="1.2" stroke-dasharray="3,3"/>

    <rect x="666.0" y="1038.1" width="35.0" height="11.5" rx="0" fill="#64748B" stroke="#0F172A" stroke-width="1.5" />


    <!-- Bathrooms Divider (Horizontal wall at y=6.10, x=0.23 to 2.10) -->
    <rect x="343.0" y="834.5" width="187.0" height="11.5" rx="0" fill="#64748B" stroke="#0F172A" stroke-width="1.5" />

    <!-- Common Bath North Wall (y=8.128, x=0.23 to 2.10) -->
    <rect x="343.0" y="631.7" width="187.0" height="11.5" rx="0" fill="#64748B" stroke="#0F172A" stroke-width="1.5" />


    <!-- Common Bathroom East Wall (x=2.10) - SHIELDED DOOR INSIDE PRIVATE LOBBY -->
    <rect x="524.0" y="760.0" width="11.5" height="283.6" rx="0" fill="#64748B" stroke="#0F172A" stroke-width="1.5" />

    <line x1="530.0" y1="760.0" x2="450.0" y2="760.0" stroke="#059669" stroke-width="2.5" />
<path d="M 450.0 760.0 A 80.0 80.0 0 0 1 530.0 680.0" fill="none" stroke="#10B981" stroke-width="1.2" stroke-dasharray="3,3"/>

    <rect x="524.0" y="637.2" width="11.5" height="42.8" rx="0" fill="#64748B" stroke="#0F172A" stroke-width="1.5" />


    <!-- PRIVATE LOBBY NORTH WALL (y=8.128, x=2.10 to 3.810): DIRECT DOOR TO NW ROOM! -->
    <rect x="530.0" y="631.7" width="30.0" height="11.5" rx="0" fill="#64748B" stroke="#0F172A" stroke-width="1.5" />

    <line x1="560.0" y1="637.2" x2="560.0" y2="547.2" stroke="#059669" stroke-width="2.5" />
<path d="M 560.0 547.2 A 90.0 90.0 0 0 0 650.0 637.2" fill="none" stroke="#10B981" stroke-width="1.2" stroke-dasharray="3,3"/>

    <rect x="650.0" y="631.7" width="51.0" height="11.5" rx="0" fill="#64748B" stroke="#0F172A" stroke-width="1.5" />


    <!-- Private Lobby East Wall & Archway (x=3.810): Vanity at South, Archway at North -->
    <rect x="695.0" y="840.0" width="11.5" height="203.6" rx="0" fill="#64748B" stroke="#0F172A" stroke-width="1.5" />

    <line x1="701.0" y1="840.0" x2="701.0" y2="637.2" stroke="#0D9488" stroke-width="2.0" stroke-dasharray="5,5" />

    <text x="701.0" y="740.0" font-family="Inter, -apple-system, sans-serif" font-size="9" font-weight="700" fill="#0D9488" text-anchor="middle" transform="rotate(-90 701.0 740.0)" >OPEN ARCHWAY TO LOBBY (6'-4&quot; WIDE)</text>


    <!-- SOLID SOUNDPROOF PARTITION BETWEEN NORTH ROOMS (x=3.810, y=8.128 to PLINTH_D) -->
    <rect x="695.0" y="253.8" width="11.5" height="383.4" rx="0" fill="#64748B" stroke="#0F172A" stroke-width="1.5" />


    <!-- North-Central Bedroom Entrance from Living (y=8.128, x=3.810 to 7.315) -->
    <rect x="701.0" y="631.7" width="69.0" height="11.5" rx="0" fill="#64748B" stroke="#0F172A" stroke-width="1.5" />

    <line x1="770.0" y1="637.2" x2="770.0" y2="547.2" stroke="#059669" stroke-width="2.5" />
<path d="M 770.0 547.2 A 90.0 90.0 0 0 0 860.0 637.2" fill="none" stroke="#10B981" stroke-width="1.2" stroke-dasharray="3,3"/>

    <rect x="860.0" y="631.7" width="191.5" height="11.5" rx="0" fill="#64748B" stroke="#0F172A" stroke-width="1.5" />


    <!-- Dining/Living Partition (y=4.064, x=3.810 to 7.315) -->
    <rect x="701.0" y="1038.1" width="350.5" height="11.5" rx="0" fill="#64748B" stroke="#0F172A" stroke-width="1.5" />


    <!-- Kitchen Walls (SE Agneya) -->
    <rect x="1051.5" y="1038.1" width="373.3" height="11.5" rx="0" fill="#64748B" stroke="#0F172A" stroke-width="1.5" />

    <rect x="1045.5" y="1230.0" width="11.5" height="197.0" rx="0" fill="#64748B" stroke="#0F172A" stroke-width="1.5" />

    <line x1="1051.5" y1="1230.0" x2="961.5" y2="1230.0" stroke="#059669" stroke-width="2.5" />
<path d="M 961.5 1230.0 A 90.0 90.0 0 0 1 1051.5 1140.0" fill="none" stroke="#10B981" stroke-width="1.2" stroke-dasharray="3,3"/>

    <rect x="1045.5" y="1043.6" width="11.5" height="96.4" rx="0" fill="#64748B" stroke="#0F172A" stroke-width="1.5" />


    <!-- GRID LINE x=7.315: ENCASES COLUMN C11 (7.315, 8.128) - ZERO EXPOSED COLUMNS! -->
    <rect x="1045.5" y="253.8" width="11.5" height="476.2" rx="0" fill="#64748B" stroke="#0F172A" stroke-width="1.5" />

    <line x1="1051.5" y1="390.0" x2="941.5" y2="390.0" stroke="#059669" stroke-width="2.5" />
<path d="M 941.5 390.0 A 110.0 110.0 0 0 1 1051.5 280.0" fill="none" stroke="#10B981" stroke-width="1.2" stroke-dasharray="3,3"/>

    <text x="1006.5" y="335.0" font-family="Inter, -apple-system, sans-serif" font-size="10" font-weight="700" fill="#059669" text-anchor="middle" transform="rotate(-90 1006.5 335.0)" >
  <tspan x="1006.5" dy="-0.3em">SIMHADWARAM (D1)</tspan>
  <tspan x="1006.5" dy="1.25em">[NNE ENTRANCE]</tspan>
</text>


    <!-- Compact Daily Pooja Room (4'-0" Width Max: x=7.315 to 8.535, y=8.128 to 10.45) -->
    <rect x="1051.5" y="399.5" width="122.0" height="11.5" rx="0" fill="#64748B" stroke="#0F172A" stroke-width="1.5" />

    <rect x="1167.5" y="405.0" width="11.5" height="232.2" rx="0" fill="#64748B" stroke="#0F172A" stroke-width="1.5" />

    <line x1="1051.5" y1="600.0" x2="1131.5" y2="600.0" stroke="#059669" stroke-width="2.5" />
<path d="M 1131.5 600.0 A 80.0 80.0 0 0 0 1051.5 520.0" fill="none" stroke="#10B981" stroke-width="1.2" stroke-dasharray="3,3"/>


    <!-- Mallanna Temple Room (x=7.315 to 9.855, y=4.80 to 7.24) -->
    <rect x="1051.5" y="964.5" width="254.0" height="11.5" rx="0" fill="#64748B" stroke="#0F172A" stroke-width="1.5" />

    <rect x="1299.5" y="726.0" width="11.5" height="244.0" rx="0" fill="#64748B" stroke="#0F172A" stroke-width="1.5" />

    <rect x="1051.5" y="720.5" width="254.0" height="11.5" rx="0" fill="#64748B" stroke="#0F172A" stroke-width="1.5" />

    <rect x="1045.5" y="890.0" width="11.5" height="80.0" rx="0" fill="#64748B" stroke="#0F172A" stroke-width="1.5" />

    <line x1="1051.5" y1="890.0" x2="1141.5" y2="890.0" stroke="#059669" stroke-width="2.5" />
<path d="M 1141.5 890.0 A 90.0 90.0 0 0 0 1051.5 800.0" fill="none" stroke="#10B981" stroke-width="1.2" stroke-dasharray="3,3"/>

    <rect x="1045.5" y="726.0" width="11.5" height="74.0" rx="0" fill="#64748B" stroke="#0F172A" stroke-width="1.5" />

  </g>

  <!-- Built-In Millwork & Furniture Layout -->
  <g id="furniture_and_millwork">
    <!-- Master Bedroom (SW Niruthi) -->
    <rect x="353.0" y="1070.0" width="60.0" height="345.0" rx="0" fill="#FEF3C7" stroke="#D97706" stroke-width="1.2" />

    <text x="383.0" y="1245.0" font-family="Inter, -apple-system, sans-serif" font-size="9" font-weight="normal" fill="#92400E" text-anchor="middle" transform="rotate(-90 383.0 1245.0)" >FULL WARDROBES</text>

    <rect x="460.0" y="1212.0" width="200.0" height="200.0" rx="4" fill="#DBEAFE" stroke="#2563EB" stroke-width="1.5" />

    <text x="560.0" y="1312.0" font-family="Inter, -apple-system, sans-serif" font-size="10" font-weight="normal" fill="#1E40AF" text-anchor="middle" >
  <tspan x="560.0" dy="-0.3em">KING BED</tspan>
  <tspan x="560.0" dy="1.25em">(HEAD SOUTH)</tspan>
</text>


    <!-- Baths Fixtures -->
    <rect x="353.0" y="850.0" width="80.0" height="80.0" rx="0" fill="#F0FDF4" stroke="#16A34A" stroke-width="1.5" />

    <text x="393.0" y="890.0" font-family="Inter, -apple-system, sans-serif" font-size="8" font-weight="normal" fill="#15803D" text-anchor="middle" >SHOWER</text>

    <rect x="450.0" y="960.0" width="65.0" height="70.0" rx="0" fill="#E2E8F0" stroke="#334155" stroke-width="1.5" />

    <text x="482.0" y="995.0" font-family="Inter, -apple-system, sans-serif" font-size="8" font-weight="normal" fill="#334155" text-anchor="middle" >VANITY</text>


    <rect x="353.0" y="650.0" width="80.0" height="80.0" rx="0" fill="#F0FDF4" stroke="#16A34A" stroke-width="1.5" />

    <text x="393.0" y="690.0" font-family="Inter, -apple-system, sans-serif" font-size="8" font-weight="normal" fill="#15803D" text-anchor="middle" >SHOWER</text>

    <rect x="450.0" y="760.0" width="65.0" height="70.0" rx="0" fill="#E2E8F0" stroke="#334155" stroke-width="1.5" />

    <text x="482.0" y="795.0" font-family="Inter, -apple-system, sans-serif" font-size="8" font-weight="normal" fill="#334155" text-anchor="middle" >VANITY</text>


    <!-- Private Lobby Handwash Counter -->
    <rect x="645.0" y="920.0" width="50.0" height="105.0" rx="2" fill="#FEF3C7" stroke="#D97706" stroke-width="1.5" />

    <text x="670.0" y="973.0" font-family="Inter, -apple-system, sans-serif" font-size="8" font-weight="700" fill="#B45309" text-anchor="middle" transform="rotate(-90 670.0 973.0)" >
  <tspan x="670.0" dy="-0.3em">HANDWASH</tspan>
  <tspan x="670.0" dy="1.25em">VANITY</tspan>
</text>


    <!-- Kitchen (SE Agneya) -->
    <rect x="1359.8" y="1082.0" width="65.0" height="345.0" rx="0" fill="#1E293B" stroke="#000000" stroke-width="1.2" />

    <rect x="1060.0" y="1362.0" width="299.8" height="65.0" rx="0" fill="#1E293B" stroke="#000000" stroke-width="1.2" />

    <rect x="1364.8" y="1150.0" width="50.0" height="80.0" rx="2" fill="#F59E0B" stroke="#B45309" stroke-width="1.5" />

    <text x="1389.8" y="1190.0" font-family="Inter, -apple-system, sans-serif" font-size="9" font-weight="normal" fill="#FFFFFF" text-anchor="middle" >EAST HOB</text>


    <!-- Out-of-House Utility Balcony Fixtures -->
    <rect x="1467.8" y="1340.0" width="70.0" height="70.0" rx="0" fill="#E2E8F0" stroke="#334155" stroke-width="1.5" />

    <text x="1502.8" y="1375.0" font-family="Inter, -apple-system, sans-serif" font-size="9" font-weight="normal" fill="#334155" text-anchor="middle" >WM</text>

    <rect x="1467.8" y="1210.0" width="60.0" height="80.0" rx="0" fill="#E2E8F0" stroke="#334155" stroke-width="1.5" />

    <text x="1497.8" y="1250.0" font-family="Inter, -apple-system, sans-serif" font-size="9" font-weight="normal" fill="#334155" text-anchor="middle" >SINK</text>

    <rect x="1467.8" y="1070.0" width="60.0" height="80.0" rx="0" fill="#E2E8F0" stroke="#334155" stroke-width="1.5" />

    <text x="1497.8" y="1110.0" font-family="Inter, -apple-system, sans-serif" font-size="9" font-weight="normal" fill="#334155" text-anchor="middle" >GAS</text>


    <!-- Dining Table -->
    <rect x="800.0" y="1150.0" width="160.0" height="140.0" rx="4" fill="#FEF3C7" stroke="#D97706" stroke-width="1.5" />

    <text x="880.0" y="1220.0" font-family="Inter, -apple-system, sans-serif" font-size="10" font-weight="normal" fill="#B45309" text-anchor="middle" >
  <tspan x="880.0" dy="-0.3em">DINING TABLE</tspan>
  <tspan x="880.0" dy="1.25em">(6-SEATER)</tspan>
</text>


    <!-- Grand Living Hall -->
    <rect x="780.0" y="1000.0" width="200.0" height="38.0" rx="2" fill="#334155" stroke="#0F172A" stroke-width="1.5" />

    <text x="880.0" y="1019.0" font-family="Inter, -apple-system, sans-serif" font-size="9" font-weight="normal" fill="#FFFFFF" text-anchor="middle" >TV CONSOLE</text>

    <rect x="780.0" y="810.0" width="240.0" height="90.0" rx="4" fill="#DBEAFE" stroke="#2563EB" stroke-width="1.5" />

    <text x="900.0" y="855.0" font-family="Inter, -apple-system, sans-serif" font-size="10" font-weight="normal" fill="#1E40AF" text-anchor="middle" >SECTIONAL SOFA</text>

    <rect x="840.0" y="710.0" width="120.0" height="80.0" rx="3" fill="#FEF3C7" stroke="#D97706" stroke-width="1.5" />

    <text x="900.0" y="750.0" font-family="Inter, -apple-system, sans-serif" font-size="9" font-weight="normal" fill="#B45309" text-anchor="middle" >COFFEE TABLE</text>


    <!-- North-Central Bedroom Furniture -->
    <rect x="800.0" y="410.0" width="180.0" height="200.0" rx="4" fill="#DBEAFE" stroke="#2563EB" stroke-width="1.5" />

    <text x="890.0" y="510.0" font-family="Inter, -apple-system, sans-serif" font-size="10" font-weight="normal" fill="#1E40AF" text-anchor="middle" >
  <tspan x="890.0" dy="-0.3em">BEDROOM BED</tspan>
  <tspan x="890.0" dy="1.25em">(QUEEN)</tspan>
</text>

    <rect x="711.0" y="270.0" width="55.0" height="180.0" rx="0" fill="#FEF3C7" stroke="#D97706" stroke-width="1.5" />

    <text x="738.0" y="360.0" font-family="Inter, -apple-system, sans-serif" font-size="8" font-weight="normal" fill="#B45309" text-anchor="middle" transform="rotate(-90 738.0 360.0)" >WARDROBES</text>


    <!-- Daily Pooja Altar (Compact 4' width, faces East) -->
    <rect x="1062.0" y="470.0" width="50.0" height="120.0" rx="3" fill="#FEF3C7" stroke="#D97706" stroke-width="1.5" />

    <text x="1087.0" y="530.0" font-family="Inter, -apple-system, sans-serif" font-size="8" font-weight="700" fill="#B45309" text-anchor="middle" transform="rotate(-90 1087.0 530.0)" >ALTAR (FACES EAST)</text>


    <!-- Level 2: Home Office / Executive Study in NW -->
    <rect x="440.0" y="390.0" width="160.0" height="100.0" rx="4" fill="#E0E7FF" stroke="#4338CA" stroke-width="1.5" />

    <text x="520.0" y="440.0" font-family="Inter, -apple-system, sans-serif" font-size="10" font-weight="700" fill="#3730A3" text-anchor="middle" >
  <tspan x="520.0" dy="-0.3em">EXECUTIVE DESK</tspan>
  <tspan x="520.0" dy="1.25em">[GARDEN VIEW]</tspan>
</text>

    <rect x="355.0" y="310.0" width="40.0" height="300.0" rx="0" fill="#FEF3C7" stroke="#D97706" stroke-width="1.5" />

    <text x="375.0" y="460.0" font-family="Inter, -apple-system, sans-serif" font-size="8" font-weight="normal" fill="#B45309" text-anchor="middle" transform="rotate(-90 375.0 460.0)" >EXECUTIVE LIBRARY &amp;amp; BOOKSHELVES</text>


    <!-- Mallanna Shrine in East-Central (Faces North) -->
    <rect x="1100.0" y="895.0" width="160.0" height="60.0" rx="3" fill="#FEF3C7" stroke="#D97706" stroke-width="1.5" />

    <text x="1180.0" y="925.0" font-family="Inter, -apple-system, sans-serif" font-size="9" font-weight="700" fill="#B45309" text-anchor="middle" >MALLANNA ALTAR (FACES NORTH)</text>

    <rect x="1100.0" y="750.0" width="160.0" height="125.0" rx="2" fill="#FEF2F2" stroke="#DC2626" stroke-width="1.5" />

    <text x="1180.0" y="813.0" font-family="Inter, -apple-system, sans-serif" font-size="9" font-weight="normal" fill="#991B1B" text-anchor="middle" >PUJA RITUAL CARPET</text>

  </g>

  <!-- External NW Core (Stairs & Lift) -->
  <g id="external_core">
    <rect x="80.0" y="231.0" width="240.0" height="569.0" rx="0" fill="#F1F5F9" stroke="#475569" stroke-width="1.5" />

    <!-- Stair Flights -->
    <rect x="95.0" y="480.0" width="100.0" height="220.0" rx="0" fill="#E2E8F0" stroke="#64748B" stroke-width="1.2" />

    <rect x="205.0" y="480.0" width="100.0" height="220.0" rx="0" fill="#E2E8F0" stroke="#64748B" stroke-width="1.2" />

    <rect x="95.0" y="700.0" width="210.0" height="85.0" rx="0" fill="#CBD5E1" stroke="#475569" stroke-width="1.2" />

    <text x="200.0" y="745.0" font-family="Inter, -apple-system, sans-serif" font-size="9" font-weight="600" fill="#334155" text-anchor="middle" >MID LANDING (4'x8')</text>

    <text x="145.0" y="590.0" font-family="Inter, -apple-system, sans-serif" font-size="10" font-weight="700" fill="#2563EB" text-anchor="middle" transform="rotate(-90 145.0 590.0)" >UP -&gt;</text>

    <text x="255.0" y="590.0" font-family="Inter, -apple-system, sans-serif" font-size="10" font-weight="700" fill="#DC2626" text-anchor="middle" transform="rotate(-90 255.0 590.0)" >&lt;- DN</text>


    <!-- 6-PAX Lift -->
    <rect x="90.0" y="246.0" width="210.0" height="214.0" rx="0" fill="#E2E8F0" stroke="#334155" stroke-width="2.0" />

    <rect x="120.0" y="275.0" width="150.0" height="160.0" rx="0" fill="#FFFFFF" stroke="#0284C7" stroke-width="1.5" />

    <text x="195.0" y="350.0" font-family="Inter, -apple-system, sans-serif" font-size="11" font-weight="700" fill="#0369A1" text-anchor="middle" transform="rotate(-90 195.0 350.0)" >
  <tspan x="195.0" dy="-0.3em">6-PAX LIFT</tspan>
  <tspan x="195.0" dy="1.25em">(AUTOMATIC)</tspan>
</text>

  </g>

  <!-- 16 RCC Columns (ALL 100% EMBEDDED IN WALLS) -->
  <g id="rcc_columns">
<rect x="320.0" y="1416.0" width="23.0" height="45.0" rx="0" fill="#0F172A" stroke="#000000" stroke-width="1.0" />
<rect x="320.0" y="1021.1" width="23.0" height="45.0" rx="0" fill="#0F172A" stroke="#000000" stroke-width="1.0" />
<rect x="320.0" y="614.7" width="23.0" height="45.0" rx="0" fill="#0F172A" stroke="#000000" stroke-width="1.0" />
<rect x="320.0" y="219.8" width="23.0" height="45.0" rx="0" fill="#0F172A" stroke="#000000" stroke-width="1.0" />
<rect x="689.5" y="1416.0" width="23.0" height="45.0" rx="0" fill="#0F172A" stroke="#000000" stroke-width="1.0" />
<rect x="689.5" y="1021.1" width="23.0" height="45.0" rx="0" fill="#0F172A" stroke="#000000" stroke-width="1.0" />
<rect x="689.5" y="614.7" width="23.0" height="45.0" rx="0" fill="#0F172A" stroke="#000000" stroke-width="1.0" />
<rect x="689.5" y="219.8" width="23.0" height="45.0" rx="0" fill="#0F172A" stroke="#000000" stroke-width="1.0" />
<rect x="1040.0" y="1416.0" width="23.0" height="45.0" rx="0" fill="#0F172A" stroke="#000000" stroke-width="1.0" />
<rect x="1040.0" y="1021.1" width="23.0" height="45.0" rx="0" fill="#0F172A" stroke="#000000" stroke-width="1.0" />
<rect x="1040.0" y="614.7" width="23.0" height="45.0" rx="0" fill="#0F172A" stroke="#000000" stroke-width="1.0" />
<rect x="1040.0" y="219.8" width="23.0" height="45.0" rx="0" fill="#0F172A" stroke="#000000" stroke-width="1.0" />
<rect x="1424.8" y="1416.0" width="23.0" height="45.0" rx="0" fill="#0F172A" stroke="#000000" stroke-width="1.0" />
<rect x="1424.8" y="1021.1" width="23.0" height="45.0" rx="0" fill="#0F172A" stroke="#000000" stroke-width="1.0" />
<rect x="1424.8" y="614.7" width="23.0" height="45.0" rx="0" fill="#0F172A" stroke="#000000" stroke-width="1.0" />
<rect x="1424.8" y="219.8" width="23.0" height="45.0" rx="0" fill="#0F172A" stroke="#000000" stroke-width="1.0" />
  </g>

  <!-- Labels -->
  <g id="room_labels">
    <text x="540.0" y="1150.0" font-family="Inter, -apple-system, sans-serif" font-size="13" font-weight="700" fill="#0F172A" text-anchor="middle" >MASTER BEDROOM (BED 1)</text>

    <text x="540.0" y="1185.0" font-family="Inter, -apple-system, sans-serif" font-size="11" font-weight="600" fill="#334155" text-anchor="middle" >13'-3&quot; x 13'-3&quot; [4.04m x 4.04m]</text>

    <text x="540.0" y="1215.0" font-family="Inter, -apple-system, sans-serif" font-size="9" font-weight="normal" fill="#9A3412" text-anchor="middle" >[NIRUTHI / SW - HEAVY | PRIVATE SUITE]</text>


    <text x="435.0" y="940.0" font-family="Inter, -apple-system, sans-serif" font-size="9" font-weight="600" fill="#0F172A" text-anchor="middle" >
  <tspan x="435.0" dy="-0.3em">ATT. BATH</tspan>
  <tspan x="435.0" dy="1.25em">6'-3&quot; x 6'-8&quot;</tspan>
  <tspan x="435.0" dy="1.25em">[PRIVATE]</tspan>
</text>

    <text x="435.0" y="740.0" font-family="Inter, -apple-system, sans-serif" font-size="9" font-weight="600" fill="#047857" text-anchor="middle" >
  <tspan x="435.0" dy="-0.3em">COMMON BATH</tspan>
  <tspan x="435.0" dy="1.25em">6'-3&quot; x 6'-8&quot;</tspan>
  <tspan x="435.0" dy="1.25em">[SHIELDED DOOR]</tspan>
</text>


    <text x="615.0" y="830.0" font-family="Inter, -apple-system, sans-serif" font-size="9" font-weight="700" fill="#1E40AF" text-anchor="middle" >
  <tspan x="615.0" dy="-0.3em">PRIVATE LOBBY</tspan>
  <tspan x="615.0" dy="1.25em">5'-7&quot; WIDE GALLERY</tspan>
  <tspan x="615.0" dy="1.25em">(DIRECT ACCESS)</tspan>
</text>


    <text x="1250.0" y="1250.0" font-family="Inter, -apple-system, sans-serif" font-size="13" font-weight="700" fill="#0F172A" text-anchor="middle" >MODULAR KITCHEN</text>

    <text x="1250.0" y="1285.0" font-family="Inter, -apple-system, sans-serif" font-size="10" font-weight="600" fill="#C2410C" text-anchor="middle" >12'-4&quot; x 13'-3&quot; [SE AGNEYA]</text>


    <text x="880.0" y="780.0" font-family="Inter, -apple-system, sans-serif" font-size="14" font-weight="800" fill="#0F172A" text-anchor="middle" >GRAND LIVING HALL (BRAHMASTHANA)</text>

    <text x="880.0" y="815.0" font-family="Inter, -apple-system, sans-serif" font-size="10" font-weight="600" fill="#047857" text-anchor="middle" >18'-0&quot; x 14'-0&quot; [ZERO EXPOSED COLUMNS | FULLY EMBEDDED]</text>


    <text x="520.0" y="330.0" font-family="Inter, -apple-system, sans-serif" font-size="12" font-weight="800" fill="#0F172A" text-anchor="middle" >HOME OFFICE / EXECUTIVE STUDY</text>

    <text x="520.0" y="365.0" font-family="Inter, -apple-system, sans-serif" font-size="10" font-weight="600" fill="#1D4ED8" text-anchor="middle" >12'-6&quot; x 12'-7&quot; [NORTH GARDEN VIEW]</text>

    <text x="520.0" y="395.0" font-family="Inter, -apple-system, sans-serif" font-size="9" font-weight="normal" fill="#64748B" text-anchor="middle" >(Direct Interior Door + North Verandah Door)</text>


    <text x="880.0" y="330.0" font-family="Inter, -apple-system, sans-serif" font-size="12" font-weight="800" fill="#0F172A" text-anchor="middle" >BEDROOM 2 (GUEST / KIDS)</text>

    <text x="880.0" y="365.0" font-family="Inter, -apple-system, sans-serif" font-size="10" font-weight="600" fill="#1D4ED8" text-anchor="middle" >11'-6&quot; x 12'-7&quot; [NORTH GARDEN VIEW]</text>

    <text x="880.0" y="395.0" font-family="Inter, -apple-system, sans-serif" font-size="9" font-weight="normal" fill="#64748B" text-anchor="middle" >(Direct Living Door + North Verandah Door)</text>


    <text x="1180.0" y="810.0" font-family="Inter, -apple-system, sans-serif" font-size="11" font-weight="700" fill="#D97706" text-anchor="middle" >MALLANNA TEMPLE ROOM</text>

    <text x="1180.0" y="845.0" font-family="Inter, -apple-system, sans-serif" font-size="9" font-weight="600" fill="#B45309" text-anchor="middle" >8'-4&quot; x 8'-0&quot; [WEST DOOR | FACES NORTH]</text>


    <text x="1110.0" y="490.0" font-family="Inter, -apple-system, sans-serif" font-size="10" font-weight="700" fill="#D97706" text-anchor="middle" >DAILY POOJA</text>

    <text x="1110.0" y="525.0" font-family="Inter, -apple-system, sans-serif" font-size="8" font-weight="600" fill="#B45309" text-anchor="middle" >4'x7'6&quot; [W-DOOR]</text>

  </g>

  <!-- Dimensions -->
  <g id="plinth_dims">
    <line x1="320.0" y1="1600.0" x2="1447.8" y2="1600.0" stroke="#475569" stroke-width="1.5" />

    <text x="883.9" y="1635.0" font-family="Inter, -apple-system, sans-serif" font-size="12" font-weight="600" fill="#1E293B" text-anchor="middle" >37'-0&quot; [11.28m] OVERALL PLINTH WIDTH</text>

    <line x1="170.0" y1="1450.0" x2="170.0" y2="230.8" stroke="#475569" stroke-width="1.5" />

    <text x="135.0" y="840.4" font-family="Inter, -apple-system, sans-serif" font-size="12" font-weight="600" fill="#1E293B" text-anchor="middle" transform="rotate(-90 135.0 840.4)" >40'-0&quot; [12.19m] PLINTH DEPTH</text>

  </g>

  <!-- Title Block -->
  <g id="title_block">
  <rect x="1627.8" y="1190.0" width="480.0" height="650.0" fill="#F8FAFC" stroke="#0F172A" stroke-width="2"/>
  <rect x="1633.8" y="1196.0" width="468.0" height="638.0" fill="none" stroke="#64748B" stroke-width="1"/>
  
  <text x="1867.8" y="1225.0" font-family="Inter, sans-serif" font-size="17" font-weight="800" fill="#0F172A" text-anchor="middle">PROPERTY 2 RESIDENCE</text>
  <text x="1867.8" y="1252.0" font-family="Inter, sans-serif" font-size="13" font-weight="700" fill="#0D9488" text-anchor="middle">SECOND FLOOR - OWNER'S 2BHK &amp; OFFICE</text>
  
  <line x1="1642.8" y1="1268.0" x2="2092.8" y2="1268.0" stroke="#CBD5E1" stroke-width="1"/>
  
  <text x="1645.8" y="1295.0" font-family="Inter, sans-serif" font-size="11" fill="#334155"><tspan font-weight="700">PLOT:</tspan> 54'-0" x 66'-0" (SW Corner, 3,564 sq ft)</text>
  <text x="1645.8" y="1318.0" font-family="Inter, sans-serif" font-size="11" fill="#334155"><tspan font-weight="700">PLINTH:</tspan> 37'-0" x 40'-0" (1,480 sq ft Footprint)</text>
  <text x="1645.8" y="1341.0" font-family="Inter, sans-serif" font-size="11" fill="#334155"><tspan font-weight="700">SETBACKS:</tspan> N:17' E:9' S:9' W:8' (Vaastu Compliant)</text>
  <text x="1645.8" y="1364.0" font-family="Inter, sans-serif" font-size="11" fill="#334155"><tspan font-weight="700">CORE:</tspan> External NW Stairs &amp; 6-PAX Lift</text>
  <text x="1645.8" y="1387.0" font-family="Inter, sans-serif" font-size="11" fill="#334155"><tspan font-weight="700">SLAB:</tspan> Continuous 360° Walk-Around Cantilever</text>
  <text x="1645.8" y="1410.0" font-family="Inter, sans-serif" font-size="11" fill="#0D9488"><tspan font-weight="700">COLUMNS:</tspan> 16 RCC (9"x18") 100% Embedded in Walls</text>
  <text x="1645.8" y="1433.0" font-family="Inter, sans-serif" font-size="11" fill="#334155"><tspan font-weight="700">UTILITY:</tspan> External Balcony via Dining Lobby</text>
  <text x="1645.8" y="1456.0" font-family="Inter, sans-serif" font-size="11" fill="#334155"><tspan font-weight="700">DAILY POOJA:</tspan> Compact 4' Width (Faces East)</text>
  <text x="1645.8" y="1479.0" font-family="Inter, sans-serif" font-size="11" fill="#D97706"><tspan font-weight="700">PRIVATE LOBBY:</tspan> Unblocked Independent Access</text>
  <text x="1645.8" y="1502.0" font-family="Inter, sans-serif" font-size="11" fill="#0D9488"><tspan font-weight="700">SIMHADWARAM:</tspan> North-North-East (NNE) Entrance</text>
  
  <line x1="1642.8" y1="1520.0" x2="2092.8" y2="1520.0" stroke="#CBD5E1" stroke-width="1"/>
  
  <text x="1645.8" y="1545.0" font-family="Inter, sans-serif" font-size="10" fill="#64748B">DOORS: D1: 3'6"x7' | D2: 3'0"x7' | D3: 2'8"x7'</text>
  <text x="1645.8" y="1565.0" font-family="Inter, sans-serif" font-size="10" fill="#64748B">VAASTU: Telangana Vaastu Compliant</text>
  <text x="1645.8" y="1585.0" font-family="Inter, sans-serif" font-size="10" fill="#64748B">DRAWING NO: CAD-2026-P2-01 | REV: C</text>
</g>
</svg>